# xmcd
#
# Track frame offsets: 
#        183
#        16890
#        28770
#        45265
#        66425
#        79890
#        97210
#        121225
#        137965
#        154275
#        173328
#        190700
#        207028
#        225383
#
# Disc length: 3219 seconds
#
# Revision: 2
# Processed by: cddbd v1.5.2PL0 Copyright (c) Steve Scherf et al.
# Submitted via: ExactAudioCopy v0.99pb4
#
DISCID=b10c910e
DTITLE=Maureen McGovern - Baby I'm Yours
DYEAR=1900
DGENRE=Vocal
TTITLE0=Are You There (With Another Girl)
TTITLE1=I Will
TTITLE2=Baby I'm Yours
TTITLE3=It's All In The Game
TTITLE4=Angel On My Shoulder
TTITLE5=Sincerly
TTITLE6=Things We Said Today/For No One
TTITLE7=You Belong To Me
TTITLE8=Gonna Get Along Without You Now
TTITLE9=Put Your Head On My Shoulder
TTITLE10=Blue On Blue
TTITLE11=You Don't Have To Say You Love Me
TTITLE12=Anyone Who Had A Heart
TTITLE13=You Can Close Your Eyes
EXTD=
EXTT0=
EXTT1=
EXTT2=
EXTT3=
EXTT4=
EXTT5=
EXTT6=
EXTT7=
EXTT8=
EXTT9=
EXTT10=
EXTT11=
EXTT12=
EXTT13=
PLAYORDER=
